# xmcd
#
# Track frame offsets: 
#        150
#        22830
#        42622
#        65680
#        86427
#        100557
#        120817
#        139900
#        162927
#        178745
#
# Disc length: 2638 seconds
#
# Revision: 4
# Processed by: cddbd v1.5.1PL0 Copyright (c) Steve Scherf et al.
# Submitted via: ExactAudioCopy v0.95a5
#
DISCID=790a4c0a
DTITLE=Lonnie Johnson with Elmer Snowden - Blues and Ballads
DYEAR=1960
DGENRE=Blues
TTITLE0=Haunted House
TTITLE1=Memories Of You
TTITLE2=Blues For Chris
TTITLE3=I Found A Dream
TTITLE4=St. Louis Blues
TTITLE5=I'll Get Along Somehow
TTITLE6=Savoy Blues
TTITLE7=Back Water Blues
TTITLE8=Elmer's Blues
TTITLE9=Jelly Roll Baker
EXTD=Recorded in Englewood Cliffs, N.J. - April 5, 1960\n\nLonnie Johns
EXTD=on:  electric guitar and vocals\nElmer Snowden:  guitar\nWendell 
EXTD=Marshall:  bass YEAR: 1960 ID3G: 0
EXTT0=
EXTT1=
EXTT2=
EXTT3=
EXTT4=
EXTT5=
EXTT6=
EXTT7=
EXTT8=
EXTT9=
PLAYORDER=
